<svg id="Versiones_de_Marca" data-name="Versiones de Marca" xmlns="http://www.w3.org/2000/svg" viewBox="0 0 329.34 61.02"><defs><style>.cls-1{fill:#ff8a65;}</style></defs><title>Artboard 22</title><path class="cls-1" d="M80.35,21.13a10.66,10.66,0,0,1,4.14,4.15A12.54,12.54,0,0,1,86,31.51a12.52,12.52,0,0,1-1.5,6.23,10.62,10.62,0,0,1-4.14,4.16,11.76,11.76,0,0,1-5.84,1.48,8.9,8.9,0,0,1-6.94-2.79V51.34H60.89V20h3.73a2.65,2.65,0,0,1,2.65,2.65h0q2.49-3,7.24-3A11.76,11.76,0,0,1,80.35,21.13Zm-2.78,15a6.46,6.46,0,0,0,1.65-4.65,6.44,6.44,0,0,0-1.65-4.64,6,6,0,0,0-8.43,0,6.44,6.44,0,0,0-1.65,4.64,6.46,6.46,0,0,0,1.65,4.65,6,6,0,0,0,8.43,0Z"/><path class="cls-1" d="M99,20.38a12,12,0,0,1,4.69-.86v6.17q-1.11-.09-1.5-.09a6.15,6.15,0,0,0-4.5,1.61A6.49,6.49,0,0,0,96.07,32V42.9H89.39v-23h3.34a3,3,0,0,1,3,3h0A7.41,7.41,0,0,1,99,20.38Z"/><path class="cls-1" d="M111.54,41.86A11.36,11.36,0,0,1,107,37.64a11.67,11.67,0,0,1-1.62-6.13A11.66,11.66,0,0,1,107,25.39a11.36,11.36,0,0,1,4.52-4.22,13.85,13.85,0,0,1,6.53-1.52,13.71,13.71,0,0,1,6.51,1.52,11.44,11.44,0,0,1,4.5,4.22,11.66,11.66,0,0,1,1.62,6.12,11.67,11.67,0,0,1-1.62,6.13,11.44,11.44,0,0,1-4.5,4.22,13.71,13.71,0,0,1-6.51,1.52A13.85,13.85,0,0,1,111.54,41.86Zm10.75-5.7a6.46,6.46,0,0,0,1.65-4.65,6.44,6.44,0,0,0-1.65-4.64,5.57,5.57,0,0,0-4.22-1.74,5.62,5.62,0,0,0-4.24,1.74,6.41,6.41,0,0,0-1.67,4.64,6.43,6.43,0,0,0,1.67,4.65,5.62,5.62,0,0,0,4.24,1.73A5.56,5.56,0,0,0,122.29,36.16Z"/><path class="cls-1" d="M170.83,22.2q2.55,2.55,2.55,7.64V43H166.7V30.87a6.24,6.24,0,0,0-1.14-4.09,4,4,0,0,0-3.23-1.35A4.76,4.76,0,0,0,158.61,27a6.53,6.53,0,0,0-1.37,4.52V43h-6.68V30.87c0-3.62-1.46-5.44-4.37-5.44A4.72,4.72,0,0,0,142.51,27a6.53,6.53,0,0,0-1.37,4.52V43h-6.68V20h3.72a2.65,2.65,0,0,1,2.66,2.65h0A8.45,8.45,0,0,1,144,20.42a10.71,10.71,0,0,1,4.09-.77,9.78,9.78,0,0,1,4.41,1,7.73,7.73,0,0,1,3.17,2.8,9.48,9.48,0,0,1,3.58-2.78,11.23,11.23,0,0,1,4.73-1A9.28,9.28,0,0,1,170.83,22.2Z"/><path class="cls-1" d="M183.36,41.86a11.33,11.33,0,0,1-4.51-4.22,11.59,11.59,0,0,1-1.63-6.13,11.58,11.58,0,0,1,1.63-6.12,11.33,11.33,0,0,1,4.51-4.22,13.88,13.88,0,0,1,6.53-1.52,13.71,13.71,0,0,1,6.51,1.52,11.44,11.44,0,0,1,4.5,4.22,11.67,11.67,0,0,1,1.63,6.12,11.68,11.68,0,0,1-1.63,6.13,11.44,11.44,0,0,1-4.5,4.22,13.71,13.71,0,0,1-6.51,1.52A13.88,13.88,0,0,1,183.36,41.86Zm10.75-5.7a6.46,6.46,0,0,0,1.65-4.65,6.44,6.44,0,0,0-1.65-4.64,5.55,5.55,0,0,0-4.22-1.74,5.64,5.64,0,0,0-4.24,1.74A6.41,6.41,0,0,0,184,31.51a6.43,6.43,0,0,0,1.67,4.65,5.63,5.63,0,0,0,4.24,1.73A5.54,5.54,0,0,0,194.11,36.16Z"/><path class="cls-1" d="M229.2,20l-9.72,23h-6.89l-9.68-23h4a4.35,4.35,0,0,1,4,2.71l5.27,13,5.48-13a4.36,4.36,0,0,1,4-2.66Z"/><path class="cls-1" d="M232.63,15.71a3.45,3.45,0,0,1-1.15-2.65,3.48,3.48,0,0,1,1.15-2.66,4.27,4.27,0,0,1,3-1.07,4.37,4.37,0,0,1,3,1,3.31,3.31,0,0,1,1.16,2.57,3.65,3.65,0,0,1-1.16,2.76,4.18,4.18,0,0,1-3,1.09A4.23,4.23,0,0,1,232.63,15.71ZM232.29,20H239V43h-6.68Z"/><path class="cls-1" d="M262,22.2c1.92,1.7,2.87,4.26,2.87,7.69V43h-6.25V40.16c-1.25,2.15-3.6,3.22-7,3.22a10.85,10.85,0,0,1-4.6-.9A6.89,6.89,0,0,1,244,40a6.39,6.39,0,0,1-1-3.59,6,6,0,0,1,2.42-5.06c1.61-1.22,4.1-1.84,7.47-1.84h5.31a4.28,4.28,0,0,0-1.32-3.36,5.9,5.9,0,0,0-4-1.18,11.75,11.75,0,0,0-3.61.58c-.42.14-.81.29-1.18.45a2.25,2.25,0,0,1-2.94-1l-1.3-2.53a14.37,14.37,0,0,1,4.52-2.06,20.4,20.4,0,0,1,5.41-.73Q259.12,19.65,262,22.2ZM256.3,38.09a4.36,4.36,0,0,0,1.88-2.34V33.4H253.6q-4.11,0-4.11,2.7a2.41,2.41,0,0,0,1,2,4.52,4.52,0,0,0,2.76.75A5.82,5.82,0,0,0,256.3,38.09Z"/><path class="cls-1" d="M263.88,50.27l1.68-4.51a.18.18,0,0,1,.26-.08,4.85,4.85,0,0,0,2.64.69,2.53,2.53,0,0,0,2-.83A3.71,3.71,0,0,0,271.2,43V23.43A3.44,3.44,0,0,1,274.64,20h3.06a.17.17,0,0,1,.18.17V43a8.69,8.69,0,0,1-2.29,6.36,8.54,8.54,0,0,1-6.4,2.33,9.56,9.56,0,0,1-5.24-1.2A.2.2,0,0,1,263.88,50.27Zm7.66-34.56a3.45,3.45,0,0,1-1.15-2.65,3.48,3.48,0,0,1,1.15-2.66,4.25,4.25,0,0,1,3-1.07,5,5,0,0,1,1.88.34,3.68,3.68,0,0,1,1.84,5.09,3.53,3.53,0,0,1-.72.93,4.71,4.71,0,0,1-6,0Z"/><path class="cls-1" d="M306.13,33.4H288.71a5.4,5.4,0,0,0,2.22,3.38A7.37,7.37,0,0,0,295.3,38a9,9,0,0,0,3.19-.53,7,7,0,0,0,1-.5,2.5,2.5,0,0,1,3.1.48l2,2.18q-3.25,3.72-9.51,3.73a15.11,15.11,0,0,1-6.9-1.52,11.25,11.25,0,0,1-4.62-4.22A11.59,11.59,0,0,1,282,31.51a11.81,11.81,0,0,1,1.61-6.1A11.31,11.31,0,0,1,288,21.17a13.65,13.65,0,0,1,12.4-.06,10.65,10.65,0,0,1,4.3,4.17,12.5,12.5,0,0,1,1.56,6.32C306.26,31.69,306.22,32.29,306.13,33.4ZM290.5,26a5.52,5.52,0,0,0-1.88,3.51H300A5.54,5.54,0,0,0,298.08,26a5.6,5.6,0,0,0-3.76-1.3A5.75,5.75,0,0,0,290.5,26Z"/><path class="cls-1" d="M312.86,42.67a14.39,14.39,0,0,1-4.37-1.78l1.43-3.09a1.79,1.79,0,0,1,2.36-.87,16.51,16.51,0,0,0,2.16.77,15.39,15.39,0,0,0,4.28.62q4.25,0,4.24-2.09a1.49,1.49,0,0,0-1.15-1.42,17.52,17.52,0,0,0-3.56-.73,33.47,33.47,0,0,1-4.66-1,7.27,7.27,0,0,1-3.2-2,5.63,5.63,0,0,1-1.34-4,6.32,6.32,0,0,1,1.26-3.87A8,8,0,0,1,314,20.6a15.68,15.68,0,0,1,5.72-1,22.21,22.21,0,0,1,4.86.54,13.56,13.56,0,0,1,4,1.48l-1.46,3.12a1.8,1.8,0,0,1-2.32.88,13.46,13.46,0,0,0-5.08-1,6.72,6.72,0,0,0-3.21.6,1.75,1.75,0,0,0-1.07,1.54,1.53,1.53,0,0,0,1.15,1.5,21.36,21.36,0,0,0,3.68.81,37.83,37.83,0,0,1,4.63,1A6.92,6.92,0,0,1,328,32.11a5.57,5.57,0,0,1,1.32,3.94,6.1,6.1,0,0,1-1.28,3.81,8.25,8.25,0,0,1-3.75,2.6,16.77,16.77,0,0,1-5.84.92A22.35,22.35,0,0,1,312.86,42.67Z"/><path class="cls-1" d="M47.76,60.55l-12.09-13a10.08,10.08,0,0,1-1-1.21A10.39,10.39,0,0,1,33.48,37a10,10,0,0,1,.58-1.35l0-.07c0-.06.07-.13.12-.21l.08.09.09.09,9.9,10.57a.92.92,0,0,0,.39.26A.79.79,0,0,0,45.73,46c.24-.55.54-1.08.83-1.61a.89.89,0,0,0,0-.92c-.89-1.6-1.75-3.2-2.62-4.81l-2.75-5.05c-1-1.8-2-3.61-2.93-5.4a.35.35,0,0,1,0-.38c1.21-2.33.56-1.06,1.76-3.4a17.28,17.28,0,0,0,1.5-3.8,4.53,4.53,0,0,0,.1-2.07,1.76,1.76,0,0,0-2.5-1.29,4.43,4.43,0,0,0-1.63,1.28,16.73,16.73,0,0,0-2.24,3.41l-1.76,3.41a.36.36,0,0,1-.3.22l-6.1.72L21.36,27c-1.81.22-3.62.45-5.43.65a.87.87,0,0,0-.76.52,17.61,17.61,0,0,1-.84,1.61.81.81,0,0,0,.25,1.13A.92.92,0,0,0,15,31l14.35,2,.13,0,.11,0-.1.21,0,.07a9.31,9.31,0,0,1-.77,1.25,10.32,10.32,0,0,1-8.26,4.35,10.13,10.13,0,0,1-1.55-.08L1.27,36.51a1.46,1.46,0,0,1-1-2.22,1.45,1.45,0,0,1,.4-.42L48.07.27A1.44,1.44,0,0,1,49.53.14a1.44,1.44,0,0,1,.74,1.27l0,58.14a1.48,1.48,0,0,1-.11.57A1.46,1.46,0,0,1,47.76,60.55Z"/></svg>